<svg width="1280" height="64" viewBox="0 0 1280 64" fill="none" xmlns="http://www.w3.org/2000/svg">
<rect width="1280" height="64" fill="#FCFBFA"/>
<g clip-path="url(#clip0_44_645)">
<path d="M98.2283 31.5001C98.2283 32.544 97.8129 33.5436 97.0752 34.2811L91.7144 39.6408C91.6244 39.7308 91.5328 39.8161 91.4349 39.8951C91.2011 40.0893 90.9468 40.252 90.6814 40.383C90.1318 40.6562 89.5316 40.7921 88.9329 40.7921C87.9268 40.7921 86.9191 40.4083 86.1515 39.6392C84.6162 38.1043 84.6162 35.6139 86.1515 34.0773L88.7292 31.5001L86.1515 28.9213C84.6162 27.3863 84.6162 24.896 86.1515 23.3594C87.3756 22.1355 89.2109 21.886 90.6814 22.6172C90.95 22.7498 91.2058 22.9141 91.4428 23.1099C91.5359 23.1889 91.6276 23.271 91.7144 23.3578L91.9308 23.5742L97.0752 28.7176C97.8144 29.4566 98.2283 30.4579 98.2283 31.5001Z" fill="#27272A"/>
<path d="M98.2282 31.5001C98.2282 32.544 97.8128 33.5436 97.0752 34.2811L91.7144 39.6408C91.6243 39.7308 91.5327 39.8161 91.4348 39.8951C91.201 40.0893 90.9467 40.252 90.6814 40.383C90.307 40.1983 89.958 39.9503 89.6468 39.6392C88.1115 38.1043 88.1115 35.6139 89.6468 34.0773L92.2245 31.5001L89.6484 28.9213C88.1131 27.3863 88.1131 24.896 89.6484 23.3594C89.9596 23.0483 90.3086 22.802 90.6814 22.6172C90.9499 22.7498 91.2058 22.9141 91.4427 23.1099C91.5359 23.1889 91.6275 23.271 91.7144 23.3578L91.9308 23.5742L97.0752 28.7176C97.8144 29.4566 98.2282 30.4579 98.2282 31.5001Z" fill="#27272A"/>
<path d="M120 31.4999C120 40.6134 112.584 48.0277 103.469 48.0277H95.5793C93.507 48.0277 91.8075 46.4248 91.6574 44.3893C91.6479 44.2929 91.6448 44.195 91.6448 44.094C91.6448 41.9226 93.4059 40.1602 95.5793 40.1602H103.47C108.247 40.1602 112.134 36.2754 112.134 31.4984C112.134 26.7229 108.247 22.8365 103.47 22.8365H95.5793C93.4075 22.8365 91.6448 21.0757 91.6448 18.9028C91.6448 18.8033 91.6479 18.7038 91.6574 18.6075C91.8075 16.575 93.5054 14.9722 95.5793 14.9722H103.47C112.586 14.9722 120 22.3865 120 31.4999Z" fill="#27272A"/>
<path d="M91.9307 23.5776C91.7522 23.4418 91.5879 23.2838 91.4426 23.1133C91.5358 23.1922 91.6274 23.2744 91.7143 23.3612L91.9307 23.5776Z" fill="#27272A"/>
<path d="M91.7144 39.6408C91.6244 39.7308 91.5327 39.816 91.4348 39.895C91.5849 39.7166 91.7555 39.5555 91.9387 39.4165L91.7144 39.6408Z" fill="#27272A"/>
<path d="M114.347 31.5002C114.347 39.1166 108.151 45.3101 100.534 45.3101H93.9383C93.0506 45.3101 92.2483 44.9596 91.6559 44.3895C91.6465 44.2931 91.6433 44.1952 91.6433 44.0942C91.6433 41.9228 93.4044 40.1604 95.5778 40.1604H103.469C108.245 40.1604 112.132 36.2756 112.132 31.4986C112.132 26.7231 108.245 22.8367 103.469 22.8367H95.5794C93.4076 22.8367 91.6449 21.0759 91.6449 18.903C91.6449 18.8035 91.648 18.704 91.6575 18.6077C92.2498 18.0376 93.0522 17.687 93.9399 17.687H100.534C108.151 17.6902 114.347 23.8837 114.347 31.5002Z" fill="#27272A"/>
</g>
<path d="M965.003 37.5L964.987 30.076L961.307 36.22H960.379L956.699 30.172V37.5H954.715V26.3H956.427L960.875 33.724L965.243 26.3H966.955L966.971 37.5H965.003ZM973.068 28.86C974.327 28.86 975.287 29.164 975.948 29.772C976.62 30.3693 976.956 31.276 976.956 32.492V37.5H975.068V36.46C974.823 36.8333 974.471 37.1213 974.012 37.324C973.564 37.516 973.02 37.612 972.38 37.612C971.74 37.612 971.18 37.5053 970.7 37.292C970.22 37.068 969.847 36.764 969.58 36.38C969.324 35.9853 969.196 35.5427 969.196 35.052C969.196 34.284 969.479 33.6707 970.044 33.212C970.62 32.7427 971.522 32.508 972.748 32.508H974.956V32.38C974.956 31.7827 974.775 31.324 974.412 31.004C974.06 30.684 973.532 30.524 972.828 30.524C972.348 30.524 971.874 30.5987 971.404 30.748C970.946 30.8973 970.556 31.1053 970.236 31.372L969.452 29.916C969.9 29.5747 970.439 29.3133 971.068 29.132C971.698 28.9507 972.364 28.86 973.068 28.86ZM972.796 36.156C973.298 36.156 973.74 36.044 974.124 35.82C974.519 35.5853 974.796 35.2547 974.956 34.828V33.836H972.892C971.74 33.836 971.164 34.2147 971.164 34.972C971.164 35.3347 971.308 35.6227 971.596 35.836C971.884 36.0493 972.284 36.156 972.796 36.156ZM979.523 28.956H981.523V37.5H979.523V28.956ZM980.531 27.548C980.168 27.548 979.864 27.436 979.619 27.212C979.374 26.9773 979.251 26.6893 979.251 26.348C979.251 26.0067 979.374 25.724 979.619 25.5C979.864 25.2653 980.168 25.148 980.531 25.148C980.894 25.148 981.198 25.26 981.443 25.484C981.688 25.6973 981.811 25.9693 981.811 26.3C981.811 26.652 981.688 26.9507 981.443 27.196C981.208 27.4307 980.904 27.548 980.531 27.548ZM988.996 28.86C990.073 28.86 990.937 29.1747 991.588 29.804C992.239 30.4333 992.564 31.3667 992.564 32.604V37.5H990.564V32.86C990.564 32.1133 990.388 31.5533 990.036 31.18C989.684 30.796 989.183 30.604 988.532 30.604C987.796 30.604 987.215 30.828 986.788 31.276C986.361 31.7133 986.148 32.348 986.148 33.18V37.5H984.148V28.956H986.052V30.06C986.383 29.6653 986.799 29.3667 987.3 29.164C987.801 28.9613 988.367 28.86 988.996 28.86Z" fill="#7E3AF2"/>
<path d="M1026.8 34.908H1021.2L1020.1 37.5H1017.95L1022.99 26.3H1025.04L1030.1 37.5H1027.92L1026.8 34.908ZM1026.11 33.276L1024 28.38L1021.9 33.276H1026.11ZM1036.06 28.86C1036.9 28.86 1037.64 29.0413 1038.29 29.404C1038.95 29.7667 1039.47 30.2787 1039.84 30.94C1040.21 31.6013 1040.4 32.364 1040.4 33.228C1040.4 34.092 1040.21 34.86 1039.84 35.532C1039.47 36.1933 1038.95 36.7053 1038.29 37.068C1037.64 37.4307 1036.9 37.612 1036.06 37.612C1035.48 37.612 1034.94 37.5107 1034.45 37.308C1033.97 37.1053 1033.56 36.8013 1033.23 36.396V37.5H1031.33V25.628H1033.33V29.996C1033.67 29.6227 1034.07 29.34 1034.53 29.148C1035 28.956 1035.51 28.86 1036.06 28.86ZM1035.84 35.9C1036.58 35.9 1037.18 35.6547 1037.65 35.164C1038.13 34.6733 1038.37 34.028 1038.37 33.228C1038.37 32.428 1038.13 31.7827 1037.65 31.292C1037.18 30.8013 1036.58 30.556 1035.84 30.556C1035.36 30.556 1034.93 30.668 1034.54 30.892C1034.16 31.1053 1033.86 31.4147 1033.63 31.82C1033.41 32.2253 1033.3 32.6947 1033.3 33.228C1033.3 33.7613 1033.41 34.2307 1033.63 34.636C1033.86 35.0413 1034.16 35.356 1034.54 35.58C1034.93 35.7933 1035.36 35.9 1035.84 35.9ZM1046.14 37.612C1045.27 37.612 1044.49 37.4253 1043.8 37.052C1043.11 36.6787 1042.56 36.1613 1042.17 35.5C1041.78 34.828 1041.59 34.0707 1041.59 33.228C1041.59 32.3853 1041.78 31.6333 1042.17 30.972C1042.56 30.3107 1043.11 29.7933 1043.8 29.42C1044.49 29.0467 1045.27 28.86 1046.14 28.86C1047.01 28.86 1047.8 29.0467 1048.49 29.42C1049.18 29.7933 1049.72 30.3107 1050.1 30.972C1050.5 31.6333 1050.7 32.3853 1050.7 33.228C1050.7 34.0707 1050.5 34.828 1050.1 35.5C1049.72 36.1613 1049.18 36.6787 1048.49 37.052C1047.8 37.4253 1047.01 37.612 1046.14 37.612ZM1046.14 35.9C1046.87 35.9 1047.48 35.6547 1047.96 35.164C1048.44 34.6733 1048.68 34.028 1048.68 33.228C1048.68 32.428 1048.44 31.7827 1047.96 31.292C1047.48 30.8013 1046.87 30.556 1046.14 30.556C1045.4 30.556 1044.79 30.8013 1044.31 31.292C1043.84 31.7827 1043.61 32.428 1043.61 33.228C1043.61 34.028 1043.84 34.6733 1044.31 35.164C1044.79 35.6547 1045.4 35.9 1046.14 35.9ZM1060.88 28.956V37.5H1058.98V36.412C1058.66 36.796 1058.26 37.0947 1057.78 37.308C1057.3 37.5107 1056.78 37.612 1056.22 37.612C1055.08 37.612 1054.18 37.2973 1053.52 36.668C1052.87 36.028 1052.54 35.084 1052.54 33.836V28.956H1054.54V33.564C1054.54 34.332 1054.72 34.908 1055.06 35.292C1055.41 35.6653 1055.9 35.852 1056.54 35.852C1057.26 35.852 1057.82 35.6333 1058.24 35.196C1058.67 34.748 1058.88 34.108 1058.88 33.276V28.956H1060.88ZM1068.64 37.036C1068.4 37.228 1068.11 37.372 1067.77 37.468C1067.44 37.564 1067.09 37.612 1066.72 37.612C1065.78 37.612 1065.05 37.3667 1064.54 36.876C1064.03 36.3853 1063.77 35.6707 1063.77 34.732V30.62H1062.36V29.02H1063.77V27.068H1065.77V29.02H1068.06V30.62H1065.77V34.684C1065.77 35.1 1065.87 35.42 1066.08 35.644C1066.28 35.8573 1066.57 35.964 1066.96 35.964C1067.4 35.964 1067.78 35.8467 1068.08 35.612L1068.64 37.036Z" fill="#696969"/>
<path d="M1102.46 31.772H1104.42V36.236C1103.85 36.6947 1103.18 37.0467 1102.41 37.292C1101.64 37.5373 1100.85 37.66 1100.04 37.66C1098.9 37.66 1097.87 37.4147 1096.95 36.924C1096.04 36.4227 1095.32 35.7347 1094.79 34.86C1094.27 33.9853 1094.01 32.9987 1094.01 31.9C1094.01 30.8013 1094.27 29.8147 1094.79 28.94C1095.32 28.0653 1096.04 27.3827 1096.95 26.892C1097.88 26.3907 1098.92 26.14 1100.07 26.14C1101.01 26.14 1101.86 26.2947 1102.63 26.604C1103.4 26.9133 1104.05 27.3667 1104.57 27.964L1103.26 29.244C1102.4 28.3907 1101.37 27.964 1100.17 27.964C1099.38 27.964 1098.68 28.1293 1098.06 28.46C1097.45 28.7907 1096.97 29.2547 1096.62 29.852C1096.28 30.4493 1096.1 31.132 1096.1 31.9C1096.1 32.6467 1096.28 33.3187 1096.62 33.916C1096.97 34.5133 1097.45 34.9827 1098.06 35.324C1098.68 35.6653 1099.37 35.836 1100.15 35.836C1101.03 35.836 1101.8 35.644 1102.46 35.26V31.772ZM1115.01 33.276C1115.01 33.4147 1115 33.612 1114.98 33.868H1108.27C1108.39 34.4973 1108.69 34.9987 1109.18 35.372C1109.69 35.7347 1110.3 35.916 1111.04 35.916C1111.98 35.916 1112.75 35.6067 1113.36 34.988L1114.43 36.22C1114.05 36.6787 1113.56 37.0253 1112.98 37.26C1112.39 37.4947 1111.73 37.612 1110.99 37.612C1110.05 37.612 1109.23 37.4253 1108.51 37.052C1107.8 36.6787 1107.24 36.1613 1106.85 35.5C1106.46 34.828 1106.27 34.0707 1106.27 33.228C1106.27 32.396 1106.46 31.6493 1106.83 30.988C1107.22 30.316 1107.74 29.7933 1108.42 29.42C1109.09 29.0467 1109.85 28.86 1110.69 28.86C1111.52 28.86 1112.26 29.0467 1112.91 29.42C1113.57 29.7827 1114.09 30.3 1114.45 30.972C1114.82 31.6333 1115.01 32.4013 1115.01 33.276ZM1110.69 30.46C1110.05 30.46 1109.5 30.652 1109.06 31.036C1108.62 31.4093 1108.35 31.9107 1108.26 32.54H1113.1C1113.02 31.9213 1112.76 31.42 1112.32 31.036C1111.88 30.652 1111.34 30.46 1110.69 30.46ZM1122.07 37.036C1121.83 37.228 1121.54 37.372 1121.2 37.468C1120.87 37.564 1120.52 37.612 1120.15 37.612C1119.21 37.612 1118.48 37.3667 1117.97 36.876C1117.46 36.3853 1117.2 35.6707 1117.2 34.732V30.62H1115.79V29.02H1117.2V27.068H1119.2V29.02H1121.49V30.62H1119.2V34.684C1119.2 35.1 1119.3 35.42 1119.51 35.644C1119.71 35.8573 1120 35.964 1120.39 35.964C1120.83 35.964 1121.21 35.8467 1121.51 35.612L1122.07 37.036ZM1128.13 28.956H1130.13V37.5H1128.13V28.956ZM1129.14 27.548C1128.78 27.548 1128.47 27.436 1128.23 27.212C1127.98 26.9773 1127.86 26.6893 1127.86 26.348C1127.86 26.0067 1127.98 25.724 1128.23 25.5C1128.47 25.2653 1128.78 25.148 1129.14 25.148C1129.5 25.148 1129.81 25.26 1130.05 25.484C1130.3 25.6973 1130.42 25.9693 1130.42 26.3C1130.42 26.652 1130.3 26.9507 1130.05 27.196C1129.82 27.4307 1129.51 27.548 1129.14 27.548ZM1137.61 28.86C1138.68 28.86 1139.55 29.1747 1140.2 29.804C1140.85 30.4333 1141.17 31.3667 1141.17 32.604V37.5H1139.17V32.86C1139.17 32.1133 1139 31.5533 1138.65 31.18C1138.29 30.796 1137.79 30.604 1137.14 30.604C1136.41 30.604 1135.82 30.828 1135.4 31.276C1134.97 31.7133 1134.76 32.348 1134.76 33.18V37.5H1132.76V28.956H1134.66V30.06C1134.99 29.6653 1135.41 29.3667 1135.91 29.164C1136.41 28.9613 1136.98 28.86 1137.61 28.86ZM1153.27 37.036C1153.03 37.228 1152.75 37.372 1152.4 37.468C1152.07 37.564 1151.72 37.612 1151.35 37.612C1150.41 37.612 1149.68 37.3667 1149.17 36.876C1148.66 36.3853 1148.4 35.6707 1148.4 34.732V30.62H1147V29.02H1148.4V27.068H1150.4V29.02H1152.69V30.62H1150.4V34.684C1150.4 35.1 1150.51 35.42 1150.71 35.644C1150.91 35.8573 1151.2 35.964 1151.59 35.964C1152.04 35.964 1152.41 35.8467 1152.71 35.612L1153.27 37.036ZM1158.47 37.612C1157.61 37.612 1156.83 37.4253 1156.14 37.052C1155.44 36.6787 1154.9 36.1613 1154.5 35.5C1154.12 34.828 1153.93 34.0707 1153.93 33.228C1153.93 32.3853 1154.12 31.6333 1154.5 30.972C1154.9 30.3107 1155.44 29.7933 1156.14 29.42C1156.83 29.0467 1157.61 28.86 1158.47 28.86C1159.35 28.86 1160.13 29.0467 1160.82 29.42C1161.52 29.7933 1162.06 30.3107 1162.44 30.972C1162.83 31.6333 1163.03 32.3853 1163.03 33.228C1163.03 34.0707 1162.83 34.828 1162.44 35.5C1162.06 36.1613 1161.52 36.6787 1160.82 37.052C1160.13 37.4253 1159.35 37.612 1158.47 37.612ZM1158.47 35.9C1159.21 35.9 1159.82 35.6547 1160.3 35.164C1160.78 34.6733 1161.02 34.028 1161.02 33.228C1161.02 32.428 1160.78 31.7827 1160.3 31.292C1159.82 30.8013 1159.21 30.556 1158.47 30.556C1157.74 30.556 1157.13 30.8013 1156.65 31.292C1156.18 31.7827 1155.94 32.428 1155.94 33.228C1155.94 34.028 1156.18 34.6733 1156.65 35.164C1157.13 35.6547 1157.74 35.9 1158.47 35.9ZM1173.22 28.956V37.5H1171.31V36.412C1170.99 36.796 1170.59 37.0947 1170.11 37.308C1169.63 37.5107 1169.12 37.612 1168.56 37.612C1167.42 37.612 1166.52 37.2973 1165.86 36.668C1165.21 36.028 1164.88 35.084 1164.88 33.836V28.956H1166.88V33.564C1166.88 34.332 1167.05 34.908 1167.39 35.292C1167.74 35.6653 1168.24 35.852 1168.88 35.852C1169.6 35.852 1170.16 35.6333 1170.58 35.196C1171 34.748 1171.22 34.108 1171.22 33.276V28.956H1173.22ZM1179.76 37.612C1178.87 37.612 1178.08 37.4253 1177.37 37.052C1176.67 36.6787 1176.12 36.1613 1175.72 35.5C1175.33 34.828 1175.13 34.0707 1175.13 33.228C1175.13 32.3853 1175.33 31.6333 1175.72 30.972C1176.12 30.3107 1176.66 29.7933 1177.36 29.42C1178.06 29.0467 1178.86 28.86 1179.76 28.86C1180.6 28.86 1181.33 29.0307 1181.96 29.372C1182.6 29.7133 1183.08 30.204 1183.4 30.844L1181.87 31.74C1181.62 31.3453 1181.31 31.052 1180.94 30.86C1180.58 30.6573 1180.18 30.556 1179.74 30.556C1178.99 30.556 1178.37 30.8013 1177.88 31.292C1177.39 31.772 1177.15 32.4173 1177.15 33.228C1177.15 34.0387 1177.39 34.6893 1177.87 35.18C1178.36 35.66 1178.98 35.9 1179.74 35.9C1180.18 35.9 1180.58 35.804 1180.94 35.612C1181.31 35.4093 1181.62 35.1107 1181.87 34.716L1183.4 35.612C1183.07 36.252 1182.59 36.748 1181.95 37.1C1181.32 37.4413 1180.59 37.612 1179.76 37.612ZM1189.9 28.86C1190.98 28.86 1191.84 29.1747 1192.49 29.804C1193.14 30.4333 1193.47 31.3667 1193.47 32.604V37.5H1191.47V32.86C1191.47 32.1133 1191.29 31.5533 1190.94 31.18C1190.59 30.796 1190.09 30.604 1189.44 30.604C1188.7 30.604 1188.12 30.828 1187.69 31.276C1187.27 31.7133 1187.05 32.348 1187.05 33.18V37.5H1185.05V25.628H1187.05V29.948C1187.38 29.596 1187.79 29.3293 1188.27 29.148C1188.76 28.956 1189.3 28.86 1189.9 28.86Z" fill="#696969"/>
<rect y="63" width="1280" height="1" fill="#E5E7EB"/>
<defs>
<clipPath id="clip0_44_645">
<rect width="35" height="33.0555" fill="white" transform="translate(85 14.9722)"/>
</clipPath>
</defs>
</svg>
