<svg width="320" height="64" viewBox="0 0 320 64" fill="none" xmlns="http://www.w3.org/2000/svg">
<rect width="320" height="64" fill="#FCFBFA"/>
<g clip-path="url(#clip0_44_767)">
<path d="M29.2283 31.5001C29.2283 32.544 28.8129 33.5436 28.0752 34.2811L22.7144 39.6408C22.6244 39.7308 22.5328 39.8161 22.4349 39.8951C22.2011 40.0893 21.9468 40.252 21.6814 40.383C21.1318 40.6562 20.5316 40.7921 19.9329 40.7921C18.9268 40.7921 17.9191 40.4083 17.1515 39.6392C15.6162 38.1043 15.6162 35.6139 17.1515 34.0773L19.7292 31.5001L17.1515 28.9213C15.6162 27.3863 15.6162 24.896 17.1515 23.3594C18.3756 22.1355 20.2109 21.886 21.6814 22.6172C21.95 22.7498 22.2058 22.9141 22.4428 23.1099C22.5359 23.1889 22.6276 23.271 22.7144 23.3578L22.9308 23.5742L28.0752 28.7176C28.8144 29.4566 29.2283 30.4579 29.2283 31.5001Z" fill="#27272A"/>
<path d="M29.2282 31.5001C29.2282 32.544 28.8128 33.5436 28.0752 34.2811L22.7144 39.6408C22.6243 39.7308 22.5327 39.8161 22.4348 39.8951C22.201 40.0893 21.9467 40.252 21.6814 40.383C21.307 40.1983 20.958 39.9503 20.6468 39.6392C19.1115 38.1043 19.1115 35.6139 20.6468 34.0773L23.2245 31.5001L20.6484 28.9213C19.1131 27.3863 19.1131 24.896 20.6484 23.3594C20.9596 23.0483 21.3086 22.802 21.6814 22.6172C21.9499 22.7498 22.2058 22.9141 22.4427 23.1099C22.5359 23.1889 22.6275 23.271 22.7144 23.3578L22.9308 23.5742L28.0752 28.7176C28.8144 29.4566 29.2282 30.4579 29.2282 31.5001Z" fill="#27272A"/>
<path d="M50.9998 31.4999C50.9998 40.6134 43.5841 48.0277 34.4689 48.0277H26.5793C24.507 48.0277 22.8075 46.4248 22.6574 44.3893C22.6479 44.2929 22.6448 44.195 22.6448 44.094C22.6448 41.9226 24.4059 40.1602 26.5793 40.1602H34.4704C39.2468 40.1602 43.134 36.2754 43.134 31.4984C43.134 26.7229 39.2468 22.8365 34.4704 22.8365H26.5793C24.4075 22.8365 22.6448 21.0757 22.6448 18.9028C22.6448 18.8033 22.6479 18.7038 22.6574 18.6075C22.8075 16.575 24.5054 14.9722 26.5793 14.9722H34.4704C43.5857 14.9722 50.9998 22.3865 50.9998 31.4999Z" fill="#27272A"/>
<path d="M22.9307 23.5776C22.7522 23.4418 22.5879 23.2838 22.4426 23.1133C22.5358 23.1922 22.6274 23.2744 22.7143 23.3612L22.9307 23.5776Z" fill="#27272A"/>
<path d="M22.7144 39.6408C22.6244 39.7308 22.5327 39.816 22.4348 39.895C22.5849 39.7166 22.7555 39.5555 22.9387 39.4165L22.7144 39.6408Z" fill="#27272A"/>
<path d="M45.3469 31.5002C45.3469 39.1166 39.1506 45.3101 31.5343 45.3101H24.9383C24.0506 45.3101 23.2483 44.9596 22.6559 44.3895C22.6465 44.2931 22.6433 44.1952 22.6433 44.0942C22.6433 41.9228 24.4044 40.1604 26.5778 40.1604H34.469C39.2454 40.1604 43.1325 36.2756 43.1325 31.4986C43.1325 26.7231 39.2454 22.8367 34.469 22.8367H26.5794C24.4076 22.8367 22.6449 21.0759 22.6449 18.903C22.6449 18.8035 22.648 18.704 22.6575 18.6077C23.2498 18.0376 24.0522 17.687 24.9399 17.687H31.5343C39.1506 17.6902 45.3469 23.8837 45.3469 31.5002Z" fill="#27272A"/>
</g>
<path fill-rule="evenodd" clip-rule="evenodd" d="M282.8 23.4999C282.8 23.0756 282.969 22.6686 283.269 22.3685C283.569 22.0685 283.976 21.8999 284.4 21.8999H303.6C304.024 21.8999 304.431 22.0685 304.731 22.3685C305.031 22.6686 305.2 23.0756 305.2 23.4999C305.2 23.9242 305.031 24.3312 304.731 24.6313C304.431 24.9313 304.024 25.0999 303.6 25.0999H284.4C283.976 25.0999 283.569 24.9313 283.269 24.6313C282.969 24.3312 282.8 23.9242 282.8 23.4999ZM282.8 31.4999C282.8 31.0756 282.969 30.6686 283.269 30.3685C283.569 30.0685 283.976 29.8999 284.4 29.8999H303.6C304.024 29.8999 304.431 30.0685 304.731 30.3685C305.031 30.6686 305.2 31.0756 305.2 31.4999C305.2 31.9242 305.031 32.3312 304.731 32.6313C304.431 32.9313 304.024 33.0999 303.6 33.0999H284.4C283.976 33.0999 283.569 32.9313 283.269 32.6313C282.969 32.3312 282.8 31.9242 282.8 31.4999ZM282.8 39.4999C282.8 39.0756 282.969 38.6686 283.269 38.3685C283.569 38.0685 283.976 37.8999 284.4 37.8999H303.6C304.024 37.8999 304.431 38.0685 304.731 38.3685C305.031 38.6686 305.2 39.0756 305.2 39.4999C305.2 39.9242 305.031 40.3312 304.731 40.6313C304.431 40.9313 304.024 41.0999 303.6 41.0999H284.4C283.976 41.0999 283.569 40.9313 283.269 40.6313C282.969 40.3312 282.8 39.9242 282.8 39.4999Z" fill="#27272A"/>
<rect y="63" width="320" height="1" fill="#E5E7EB"/>
<defs>
<clipPath id="clip0_44_767">
<rect width="35" height="33.0555" fill="white" transform="translate(16 14.9722)"/>
</clipPath>
</defs>
</svg>
