<svg width="792" height="64" viewBox="0 0 792 64" fill="none" xmlns="http://www.w3.org/2000/svg">
<rect width="792" height="64" fill="#FCFBFA"/>
<g clip-path="url(#clip0_44_710)">
<path d="M52.2283 31.5001C52.2283 32.544 51.8129 33.5436 51.0752 34.2811L45.7144 39.6408C45.6244 39.7308 45.5328 39.8161 45.4349 39.8951C45.2011 40.0893 44.9468 40.252 44.6814 40.383C44.1318 40.6562 43.5316 40.7921 42.9329 40.7921C41.9268 40.7921 40.9191 40.4083 40.1515 39.6392C38.6162 38.1043 38.6162 35.6139 40.1515 34.0773L42.7292 31.5001L40.1515 28.9213C38.6162 27.3863 38.6162 24.896 40.1515 23.3594C41.3756 22.1355 43.2109 21.886 44.6814 22.6172C44.95 22.7498 45.2058 22.9141 45.4428 23.1099C45.5359 23.1889 45.6276 23.271 45.7144 23.3578L45.9308 23.5742L51.0752 28.7176C51.8144 29.4566 52.2283 30.4579 52.2283 31.5001Z" fill="#27272A"/>
<path d="M52.2282 31.5001C52.2282 32.544 51.8128 33.5436 51.0752 34.2811L45.7144 39.6408C45.6243 39.7308 45.5327 39.8161 45.4348 39.8951C45.201 40.0893 44.9467 40.252 44.6814 40.383C44.307 40.1983 43.958 39.9503 43.6468 39.6392C42.1115 38.1043 42.1115 35.6139 43.6468 34.0773L46.2245 31.5001L43.6484 28.9213C42.1131 27.3863 42.1131 24.896 43.6484 23.3594C43.9596 23.0483 44.3086 22.802 44.6814 22.6172C44.9499 22.7498 45.2058 22.9141 45.4427 23.1099C45.5359 23.1889 45.6275 23.271 45.7144 23.3578L45.9308 23.5742L51.0752 28.7176C51.8144 29.4566 52.2282 30.4579 52.2282 31.5001Z" fill="#27272A"/>
<path d="M73.9998 31.4999C73.9998 40.6134 66.5841 48.0277 57.4689 48.0277H49.5793C47.507 48.0277 45.8075 46.4248 45.6574 44.3893C45.6479 44.2929 45.6448 44.195 45.6448 44.094C45.6448 41.9226 47.4059 40.1602 49.5793 40.1602H57.4704C62.2468 40.1602 66.134 36.2754 66.134 31.4984C66.134 26.7229 62.2468 22.8365 57.4704 22.8365H49.5793C47.4075 22.8365 45.6448 21.0757 45.6448 18.9028C45.6448 18.8033 45.6479 18.7038 45.6574 18.6075C45.8075 16.575 47.5054 14.9722 49.5793 14.9722H57.4704C66.5857 14.9722 73.9998 22.3865 73.9998 31.4999Z" fill="#27272A"/>
<path d="M45.9307 23.5776C45.7522 23.4418 45.5879 23.2838 45.4426 23.1133C45.5358 23.1922 45.6274 23.2744 45.7143 23.3612L45.9307 23.5776Z" fill="#27272A"/>
<path d="M45.7144 39.6408C45.6244 39.7308 45.5327 39.816 45.4348 39.895C45.5849 39.7166 45.7555 39.5555 45.9387 39.4165L45.7144 39.6408Z" fill="#27272A"/>
<path d="M68.3469 31.5002C68.3469 39.1166 62.1506 45.3101 54.5343 45.3101H47.9383C47.0506 45.3101 46.2483 44.9596 45.6559 44.3895C45.6465 44.2931 45.6433 44.1952 45.6433 44.0942C45.6433 41.9228 47.4044 40.1604 49.5778 40.1604H57.469C62.2454 40.1604 66.1325 36.2756 66.1325 31.4986C66.1325 26.7231 62.2454 22.8367 57.469 22.8367H49.5794C47.4076 22.8367 45.6449 21.0759 45.6449 18.903C45.6449 18.8035 45.648 18.704 45.6575 18.6077C46.2498 18.0376 47.0522 17.687 47.9399 17.687H54.5343C62.1506 17.6902 68.3469 23.8837 68.3469 31.5002Z" fill="#27272A"/>
</g>
<path d="M523.003 37.5L522.987 30.076L519.307 36.22H518.379L514.699 30.172V37.5H512.715V26.3H514.427L518.875 33.724L523.243 26.3H524.955L524.971 37.5H523.003ZM531.068 28.86C532.327 28.86 533.287 29.164 533.948 29.772C534.62 30.3693 534.956 31.276 534.956 32.492V37.5H533.068V36.46C532.823 36.8333 532.471 37.1213 532.012 37.324C531.564 37.516 531.02 37.612 530.38 37.612C529.74 37.612 529.18 37.5053 528.7 37.292C528.22 37.068 527.847 36.764 527.58 36.38C527.324 35.9853 527.196 35.5427 527.196 35.052C527.196 34.284 527.479 33.6707 528.044 33.212C528.62 32.7427 529.522 32.508 530.748 32.508H532.956V32.38C532.956 31.7827 532.775 31.324 532.412 31.004C532.06 30.684 531.532 30.524 530.828 30.524C530.348 30.524 529.874 30.5987 529.404 30.748C528.946 30.8973 528.556 31.1053 528.236 31.372L527.452 29.916C527.9 29.5747 528.439 29.3133 529.068 29.132C529.698 28.9507 530.364 28.86 531.068 28.86ZM530.796 36.156C531.298 36.156 531.74 36.044 532.124 35.82C532.519 35.5853 532.796 35.2547 532.956 34.828V33.836H530.892C529.74 33.836 529.164 34.2147 529.164 34.972C529.164 35.3347 529.308 35.6227 529.596 35.836C529.884 36.0493 530.284 36.156 530.796 36.156ZM537.523 28.956H539.523V37.5H537.523V28.956ZM538.531 27.548C538.168 27.548 537.864 27.436 537.619 27.212C537.374 26.9773 537.251 26.6893 537.251 26.348C537.251 26.0067 537.374 25.724 537.619 25.5C537.864 25.2653 538.168 25.148 538.531 25.148C538.894 25.148 539.198 25.26 539.443 25.484C539.688 25.6973 539.811 25.9693 539.811 26.3C539.811 26.652 539.688 26.9507 539.443 27.196C539.208 27.4307 538.904 27.548 538.531 27.548ZM546.996 28.86C548.073 28.86 548.937 29.1747 549.588 29.804C550.239 30.4333 550.564 31.3667 550.564 32.604V37.5H548.564V32.86C548.564 32.1133 548.388 31.5533 548.036 31.18C547.684 30.796 547.183 30.604 546.532 30.604C545.796 30.604 545.215 30.828 544.788 31.276C544.361 31.7133 544.148 32.348 544.148 33.18V37.5H542.148V28.956H544.052V30.06C544.383 29.6653 544.799 29.3667 545.3 29.164C545.801 28.9613 546.367 28.86 546.996 28.86Z" fill="#7E3AF2"/>
<path d="M584.799 34.908H579.199L578.095 37.5H575.951L580.991 26.3H583.039L588.095 37.5H585.919L584.799 34.908ZM584.111 33.276L581.999 28.38L579.903 33.276H584.111ZM594.064 28.86C594.896 28.86 595.637 29.0413 596.288 29.404C596.949 29.7667 597.466 30.2787 597.84 30.94C598.213 31.6013 598.4 32.364 598.4 33.228C598.4 34.092 598.213 34.86 597.84 35.532C597.466 36.1933 596.949 36.7053 596.288 37.068C595.637 37.4307 594.896 37.612 594.064 37.612C593.477 37.612 592.938 37.5107 592.448 37.308C591.968 37.1053 591.562 36.8013 591.232 36.396V37.5H589.328V25.628H591.328V29.996C591.669 29.6227 592.069 29.34 592.528 29.148C592.997 28.956 593.509 28.86 594.064 28.86ZM593.84 35.9C594.576 35.9 595.178 35.6547 595.648 35.164C596.128 34.6733 596.368 34.028 596.368 33.228C596.368 32.428 596.128 31.7827 595.648 31.292C595.178 30.8013 594.576 30.556 593.84 30.556C593.36 30.556 592.928 30.668 592.544 30.892C592.16 31.1053 591.856 31.4147 591.632 31.82C591.408 32.2253 591.296 32.6947 591.296 33.228C591.296 33.7613 591.408 34.2307 591.632 34.636C591.856 35.0413 592.16 35.356 592.544 35.58C592.928 35.7933 593.36 35.9 593.84 35.9ZM604.136 37.612C603.272 37.612 602.494 37.4253 601.8 37.052C601.107 36.6787 600.563 36.1613 600.168 35.5C599.784 34.828 599.592 34.0707 599.592 33.228C599.592 32.3853 599.784 31.6333 600.168 30.972C600.563 30.3107 601.107 29.7933 601.8 29.42C602.494 29.0467 603.272 28.86 604.136 28.86C605.011 28.86 605.795 29.0467 606.488 29.42C607.182 29.7933 607.72 30.3107 608.104 30.972C608.499 31.6333 608.696 32.3853 608.696 33.228C608.696 34.0707 608.499 34.828 608.104 35.5C607.72 36.1613 607.182 36.6787 606.488 37.052C605.795 37.4253 605.011 37.612 604.136 37.612ZM604.136 35.9C604.872 35.9 605.48 35.6547 605.96 35.164C606.44 34.6733 606.68 34.028 606.68 33.228C606.68 32.428 606.44 31.7827 605.96 31.292C605.48 30.8013 604.872 30.556 604.136 30.556C603.4 30.556 602.792 30.8013 602.312 31.292C601.843 31.7827 601.608 32.428 601.608 33.228C601.608 34.028 601.843 34.6733 602.312 35.164C602.792 35.6547 603.4 35.9 604.136 35.9ZM618.881 28.956V37.5H616.977V36.412C616.657 36.796 616.257 37.0947 615.777 37.308C615.297 37.5107 614.78 37.612 614.225 37.612C613.084 37.612 612.182 37.2973 611.521 36.668C610.87 36.028 610.545 35.084 610.545 33.836V28.956H612.545V33.564C612.545 34.332 612.716 34.908 613.057 35.292C613.409 35.6653 613.905 35.852 614.545 35.852C615.26 35.852 615.825 35.6333 616.241 35.196C616.668 34.748 616.881 34.108 616.881 33.276V28.956H618.881ZM626.636 37.036C626.401 37.228 626.113 37.372 625.772 37.468C625.441 37.564 625.089 37.612 624.716 37.612C623.777 37.612 623.052 37.3667 622.539 36.876C622.028 36.3853 621.772 35.6707 621.772 34.732V30.62H620.364V29.02H621.772V27.068H623.772V29.02H626.06V30.62H623.772V34.684C623.772 35.1 623.873 35.42 624.076 35.644C624.278 35.8573 624.572 35.964 624.956 35.964C625.404 35.964 625.777 35.8467 626.076 35.612L626.636 37.036Z" fill="#696969"/>
<path d="M660.457 31.772H662.425V36.236C661.849 36.6947 661.177 37.0467 660.409 37.292C659.641 37.5373 658.851 37.66 658.041 37.66C656.899 37.66 655.87 37.4147 654.953 36.924C654.035 36.4227 653.315 35.7347 652.793 34.86C652.27 33.9853 652.009 32.9987 652.009 31.9C652.009 30.8013 652.27 29.8147 652.793 28.94C653.315 28.0653 654.035 27.3827 654.953 26.892C655.881 26.3907 656.921 26.14 658.073 26.14C659.011 26.14 659.865 26.2947 660.633 26.604C661.401 26.9133 662.046 27.3667 662.569 27.964L661.257 29.244C660.403 28.3907 659.374 27.964 658.169 27.964C657.379 27.964 656.675 28.1293 656.057 28.46C655.449 28.7907 654.969 29.2547 654.617 29.852C654.275 30.4493 654.105 31.132 654.105 31.9C654.105 32.6467 654.275 33.3187 654.617 33.916C654.969 34.5133 655.449 34.9827 656.057 35.324C656.675 35.6653 657.374 35.836 658.153 35.836C659.027 35.836 659.795 35.644 660.457 35.26V31.772ZM673.008 33.276C673.008 33.4147 672.997 33.612 672.976 33.868H666.272C666.389 34.4973 666.693 34.9987 667.184 35.372C667.685 35.7347 668.304 35.916 669.04 35.916C669.979 35.916 670.752 35.6067 671.36 34.988L672.432 36.22C672.048 36.6787 671.563 37.0253 670.976 37.26C670.389 37.4947 669.728 37.612 668.992 37.612C668.053 37.612 667.227 37.4253 666.512 37.052C665.797 36.6787 665.243 36.1613 664.848 35.5C664.464 34.828 664.272 34.0707 664.272 33.228C664.272 32.396 664.459 31.6493 664.832 30.988C665.216 30.316 665.744 29.7933 666.416 29.42C667.088 29.0467 667.845 28.86 668.688 28.86C669.52 28.86 670.261 29.0467 670.912 29.42C671.573 29.7827 672.085 30.3 672.448 30.972C672.821 31.6333 673.008 32.4013 673.008 33.276ZM668.688 30.46C668.048 30.46 667.504 30.652 667.056 31.036C666.619 31.4093 666.352 31.9107 666.256 32.54H671.104C671.019 31.9213 670.757 31.42 670.32 31.036C669.883 30.652 669.339 30.46 668.688 30.46ZM680.065 37.036C679.831 37.228 679.543 37.372 679.201 37.468C678.871 37.564 678.519 37.612 678.145 37.612C677.207 37.612 676.481 37.3667 675.969 36.876C675.457 36.3853 675.201 35.6707 675.201 34.732V30.62H673.793V29.02H675.201V27.068H677.201V29.02H679.489V30.62H677.201V34.684C677.201 35.1 677.303 35.42 677.505 35.644C677.708 35.8573 678.001 35.964 678.385 35.964C678.833 35.964 679.207 35.8467 679.505 35.612L680.065 37.036ZM686.132 28.956H688.132V37.5H686.132V28.956ZM687.14 27.548C686.778 27.548 686.474 27.436 686.228 27.212C685.983 26.9773 685.86 26.6893 685.86 26.348C685.86 26.0067 685.983 25.724 686.228 25.5C686.474 25.2653 686.778 25.148 687.14 25.148C687.503 25.148 687.807 25.26 688.052 25.484C688.298 25.6973 688.42 25.9693 688.42 26.3C688.42 26.652 688.298 26.9507 688.052 27.196C687.818 27.4307 687.514 27.548 687.14 27.548ZM695.605 28.86C696.683 28.86 697.547 29.1747 698.197 29.804C698.848 30.4333 699.173 31.3667 699.173 32.604V37.5H697.173V32.86C697.173 32.1133 696.997 31.5533 696.645 31.18C696.293 30.796 695.792 30.604 695.141 30.604C694.405 30.604 693.824 30.828 693.397 31.276C692.971 31.7133 692.757 32.348 692.757 33.18V37.5H690.757V28.956H692.661V30.06C692.992 29.6653 693.408 29.3667 693.909 29.164C694.411 28.9613 694.976 28.86 695.605 28.86ZM711.268 37.036C711.034 37.228 710.746 37.372 710.404 37.468C710.074 37.564 709.722 37.612 709.348 37.612C708.41 37.612 707.684 37.3667 707.172 36.876C706.66 36.3853 706.404 35.6707 706.404 34.732V30.62H704.996V29.02H706.404V27.068H708.404V29.02H710.692V30.62H708.404V34.684C708.404 35.1 708.506 35.42 708.708 35.644C708.911 35.8573 709.204 35.964 709.588 35.964C710.036 35.964 710.41 35.8467 710.708 35.612L711.268 37.036ZM716.472 37.612C715.608 37.612 714.83 37.4253 714.136 37.052C713.443 36.6787 712.899 36.1613 712.504 35.5C712.12 34.828 711.928 34.0707 711.928 33.228C711.928 32.3853 712.12 31.6333 712.504 30.972C712.899 30.3107 713.443 29.7933 714.136 29.42C714.83 29.0467 715.608 28.86 716.472 28.86C717.347 28.86 718.131 29.0467 718.824 29.42C719.518 29.7933 720.056 30.3107 720.44 30.972C720.835 31.6333 721.032 32.3853 721.032 33.228C721.032 34.0707 720.835 34.828 720.44 35.5C720.056 36.1613 719.518 36.6787 718.824 37.052C718.131 37.4253 717.347 37.612 716.472 37.612ZM716.472 35.9C717.208 35.9 717.816 35.6547 718.296 35.164C718.776 34.6733 719.016 34.028 719.016 33.228C719.016 32.428 718.776 31.7827 718.296 31.292C717.816 30.8013 717.208 30.556 716.472 30.556C715.736 30.556 715.128 30.8013 714.648 31.292C714.179 31.7827 713.944 32.428 713.944 33.228C713.944 34.028 714.179 34.6733 714.648 35.164C715.128 35.6547 715.736 35.9 716.472 35.9ZM731.217 28.956V37.5H729.313V36.412C728.993 36.796 728.593 37.0947 728.113 37.308C727.633 37.5107 727.115 37.612 726.561 37.612C725.419 37.612 724.518 37.2973 723.857 36.668C723.206 36.028 722.881 35.084 722.881 33.836V28.956H724.881V33.564C724.881 34.332 725.051 34.908 725.393 35.292C725.745 35.6653 726.241 35.852 726.881 35.852C727.595 35.852 728.161 35.6333 728.577 35.196C729.003 34.748 729.217 34.108 729.217 33.276V28.956H731.217ZM737.755 37.612C736.87 37.612 736.075 37.4253 735.371 37.052C734.667 36.6787 734.118 36.1613 733.723 35.5C733.329 34.828 733.131 34.0707 733.131 33.228C733.131 32.3853 733.329 31.6333 733.723 30.972C734.118 30.3107 734.662 29.7933 735.355 29.42C736.059 29.0467 736.859 28.86 737.755 28.86C738.598 28.86 739.334 29.0307 739.963 29.372C740.603 29.7133 741.083 30.204 741.403 30.844L739.867 31.74C739.622 31.3453 739.313 31.052 738.939 30.86C738.577 30.6573 738.177 30.556 737.739 30.556C736.993 30.556 736.374 30.8013 735.883 31.292C735.393 31.772 735.147 32.4173 735.147 33.228C735.147 34.0387 735.387 34.6893 735.867 35.18C736.358 35.66 736.982 35.9 737.739 35.9C738.177 35.9 738.577 35.804 738.939 35.612C739.313 35.4093 739.622 35.1107 739.867 34.716L741.403 35.612C741.073 36.252 740.587 36.748 739.947 37.1C739.318 37.4413 738.587 37.612 737.755 37.612ZM747.902 28.86C748.98 28.86 749.844 29.1747 750.494 29.804C751.145 30.4333 751.47 31.3667 751.47 32.604V37.5H749.47V32.86C749.47 32.1133 749.294 31.5533 748.942 31.18C748.59 30.796 748.089 30.604 747.438 30.604C746.702 30.604 746.121 30.828 745.694 31.276C745.268 31.7133 745.054 32.348 745.054 33.18V37.5H743.054V25.628H745.054V29.948C745.385 29.596 745.79 29.3293 746.27 29.148C746.761 28.956 747.305 28.86 747.902 28.86Z" fill="#696969"/>
<rect y="63" width="792" height="1" fill="#E5E7EB"/>
<defs>
<clipPath id="clip0_44_710">
<rect width="35" height="33.0555" fill="white" transform="translate(39 14.9722)"/>
</clipPath>
</defs>
</svg>
